<svg width="15" height="15" viewBox="0 0 15 15" fill="none" xmlns="http://www.w3.org/2000/svg">
<path fill-rule="evenodd" clip-rule="evenodd" d="M10.8369 1.76655C10.8373 2.71728 11.608 3.4879 12.5587 3.48831H14.3252V11.1777C14.3235 11.7475 13.862 12.209 13.2922 12.2108H11.0056V5.575C11.0066 5.48339 10.9706 5.39529 10.9058 5.33059L7.42436 1.8595L7.421 1.856C7.35469 1.79103 7.26591 1.75404 7.17309 1.75269H5.25159V1.03305C5.2532 0.46326 5.71471 0.00161415 6.28464 0H10.8369V1.76655ZM11.8769 10.4614H12.9271C13.1173 10.4614 13.2715 10.3073 13.2715 10.1171C13.2715 9.92687 13.1173 9.77272 12.9271 9.77272H11.8769C11.6867 9.77272 11.5325 9.92687 11.5325 10.1171C11.5325 10.3073 11.6867 10.4614 11.8769 10.4614ZM11.8769 8.01989H12.9271C13.1173 8.01989 13.2715 7.86574 13.2715 7.67554C13.2715 7.48547 13.1173 7.33119 12.9271 7.33119H11.8769C11.6867 7.33119 11.5325 7.48547 11.5325 7.67554C11.5325 7.86574 11.6867 8.01989 11.8769 8.01989ZM12.5588 2.79959H13.8432L11.5257 0.485573V1.76653C11.5273 2.33633 11.989 2.79784 12.5588 2.79959ZM6.82871 2.44137V4.20792C6.82979 5.15704 7.59785 5.92672 8.54697 5.92967H10.3135V13.9669C10.3118 14.5367 9.85026 14.9982 9.28046 15H1.92856C1.35863 14.9982 0.897122 14.5367 0.895508 13.9669V3.47442C0.897122 2.90463 1.35863 2.44312 1.92856 2.44137H6.82871ZM6.12615 7.33116H2.63785C2.44778 7.33116 2.29349 7.48544 2.29349 7.67551C2.29349 7.86571 2.44778 8.01986 2.63785 8.01986H6.12615C6.31635 8.01986 6.4705 7.86571 6.4705 7.67551C6.4705 7.48544 6.31635 7.33116 6.12615 7.33116ZM2.63785 12.9028H8.9154C9.1056 12.9028 9.25975 12.7486 9.25975 12.5584C9.25975 12.3682 9.1056 12.2141 8.9154 12.2141H2.63785C2.44778 12.2141 2.29349 12.3682 2.29349 12.5584C2.29349 12.7486 2.44778 12.9028 2.63785 12.9028ZM8.9154 10.4614C9.10533 10.4609 9.25921 10.307 9.25975 10.117C9.25921 9.92711 9.10533 9.77323 8.9154 9.77269H2.63785C2.44778 9.77269 2.29349 9.92684 2.29349 10.117C2.29349 10.3072 2.44778 10.4614 2.63785 10.4614H8.9154ZM7.51752 2.92694L9.83489 5.24096H8.55057C7.98064 5.23934 7.51913 4.77783 7.51752 4.2079V2.92694Z" fill="#1A3C7B"/>
</svg>
