<svg width="14" height="12" viewBox="0 0 14 12" fill="none" xmlns="http://www.w3.org/2000/svg">
<path fill-rule="evenodd" clip-rule="evenodd" d="M1 0C0.447715 0 0 0.447715 0 1V10.375C0 10.9273 0.447716 11.375 1 11.375H13C13.5523 11.375 14 10.9273 14 10.375V1C14 0.447715 13.5523 0 13 0H1ZM2.86448 2.71941C2.50239 2.51825 2.04579 2.64871 1.84463 3.0108C1.64347 3.37289 1.77392 3.82949 2.13601 4.03065L6.63601 6.53065C6.86253 6.65649 7.13796 6.65649 7.36448 6.53065L11.8645 4.03065C12.2266 3.82949 12.357 3.37289 12.1559 3.0108C11.9547 2.64871 11.4981 2.51825 11.136 2.71941L7.00024 5.01706L2.86448 2.71941Z" fill="#1A3C7B"/>
</svg>
