
<svg width="15" height="15" viewBox="0 0 15 15" fill="none" xmlns="http://www.w3.org/2000/svg">
<path d="M14.5135 8.68375C14.9606 4.92021 14.2987 2.54419 13.1047 1.46952C11.1777 -0.365731 4.67031 -0.637989 2.36485 1.55132C1.32952 2.62225 0.964845 4.19398 0.924881 6.13975C0.884916 8.08615 0.837458 11.7323 4.23507 12.7214H4.23819L4.23507 14.232C4.23507 14.232 4.21197 14.8439 4.60287 14.9669C5.04997 15.1118 5.2523 14.8277 6.64294 13.1666C8.96838 13.3683 10.7543 12.9063 10.9572 12.8388C11.4268 12.6815 14.0838 12.3299 14.5135 8.68375Z" fill="#7C519E"/>
<path d="M7.68617 2.69153C7.44576 2.69153 7.44576 3.0662 7.68617 3.06932C9.55139 3.08368 11.0875 4.38378 11.1044 6.76854C11.1044 7.02019 11.4728 7.01707 11.4697 6.76542H11.4691C11.4491 4.19582 9.77182 2.70589 7.68617 2.69153Z" fill="white"/>
<path d="M10.1399 6.37332C10.1343 6.62185 10.5021 6.63372 10.5052 6.38206C10.5358 4.96519 9.66219 3.7981 8.02052 3.67509C7.78011 3.6576 7.75513 4.03539 7.99492 4.05288C9.41866 4.16091 10.1686 5.13255 10.1399 6.37332Z" fill="white"/>
<path d="M9.74652 7.985C9.43804 7.80641 9.12395 7.91756 8.99406 8.09303L8.72243 8.44459C8.58442 8.62318 8.32653 8.59946 8.32653 8.59946C6.44445 8.10177 5.94114 6.13227 5.94114 6.13227C5.94114 6.13227 5.91804 5.86563 6.09039 5.72263L6.43008 5.44163C6.59993 5.30675 6.70734 4.98204 6.53437 4.66294C6.07228 3.82806 5.76193 3.54019 5.60394 3.31914C5.43784 3.11119 5.18806 3.06436 4.92829 3.20486H4.92267C4.38252 3.52083 3.79117 4.11218 3.98038 4.72102C4.30322 5.36295 4.89644 7.40926 6.78727 8.95539C7.67585 9.68662 9.08211 10.436 9.67908 10.6089L9.6847 10.6177C10.2729 10.8137 10.8449 10.1993 11.1503 9.64291V9.63854C11.2858 9.3694 11.2408 9.11462 11.0429 8.9479C10.6919 8.6057 10.1624 8.22791 9.74652 7.985Z" fill="white"/>
<path d="M8.27805 5.0688C8.87814 5.10377 9.16913 5.41724 9.20036 6.06105C9.2116 6.3127 9.5769 6.29522 9.56566 6.04356C9.52569 5.20306 9.08733 4.73472 8.29803 4.69101C8.05762 4.67665 8.03514 5.05444 8.27805 5.0688Z" fill="white"/>
</svg>